# xmcd CD database file
# Copyright (C) 1993-1996 Ti Kan
#
# Track frame offsets:
#  150
#  24685
#  46795
#  67202
#  81770
#  106030
#  123500
#  145845
#  169855
#  191767
#  204022
#  219887
#
# Disc length: 3291 seconds
#
# Revision: 1
# Processed by: cddbd v1.5.2PL0 Copyright (c) Steve Scherf et al.
# Submitted via: Advanced CD Ripper Pro 2.0
#
DISCID=a20cd90c
DTITLE=ESAT KABAKLI - KÝRVE MEMÝ
DYEAR=2007
DGENRE=
TTITLE0=KÝRVE MEMÝ
TTITLE1=DAÐLAR
TTITLE2=DELÝLO
TTITLE3=BABA VEYSEL
TTITLE4=GÖNÜL
TTITLE5=ÝSFAHAN
TTITLE6=BÝL OÐLUM
TTITLE7=GÖLLÜBAÐ'A SELAM
TTITLE8=FELEK
TTITLE9=ADALET GEÇÝKMEZ
TTITLE10=HARDASAN
TTITLE11=BAD'I SABA
EXTD=
EXTT0=
EXTT1=
EXTT2=
EXTT3=
EXTT4=
EXTT5=
EXTT6=
EXTT7=
EXTT8=
EXTT9=
EXTT10=
EXTT11=
PLAYORDER=
